<svg width="24" height="24" viewBox="0 0 24 24" fill="none" xmlns="http://www.w3.org/2000/svg">
<rect width="24" height="24" rx="12" fill="url(#paint0_linear_5_3572)"/>
<g opacity="0.8">
<path d="M16.3328 13.3332C15.5965 13.3332 14.9995 12.7362 14.9995 11.9998C14.9995 11.2635 15.5965 10.6665 16.3328 10.6665C17.0692 10.6665 17.6662 11.2635 17.6662 11.9998C17.6662 12.3535 17.5257 12.6926 17.2757 12.9426C17.0256 13.1927 16.6865 13.3332 16.3328 13.3332ZM12.3328 13.3332C11.5965 13.3332 10.9995 12.7362 10.9995 11.9998C10.9995 11.2635 11.5965 10.6665 12.3328 10.6665C13.0692 10.6665 13.6662 11.2635 13.6662 11.9998C13.6662 12.3535 13.5257 12.6926 13.2757 12.9426C13.0256 13.1927 12.6865 13.3332 12.3328 13.3332ZM8.33284 13.3332C7.59647 13.3332 6.99951 12.7362 6.99951 11.9998C6.99951 11.2635 7.59647 10.6665 8.33284 10.6665C9.06922 10.6665 9.66618 11.2635 9.66618 11.9998C9.66618 12.3535 9.5257 12.6926 9.27565 12.9426C9.02561 13.1927 8.68647 13.3332 8.33284 13.3332Z" fill="white"/>
</g>
<defs>
<linearGradient id="paint0_linear_5_3572" x1="0.864865" y1="8.88978e-08" x2="18.4881" y2="26.0696" gradientUnits="userSpaceOnUse">
<stop stop-color="#1D2023"/>
<stop offset="0.979167" stop-color="#22242C"/>
</linearGradient>
</defs>
</svg>
